# xmcd CD database file
#
# Track frame offsets:
#	180
#	16414
#	32071
#	64234
#	75572
#	108137
#	121023
#	140594
#	167022
#	192868
#	201989
#	229069
#
# Disc length: 3532 seconds
#
# Revision: 0
# Processed by: cddbd v1.5PL3 Copyright (c) Steve Scherf et al.
# Submitted via: CDex 1.51
#
DISCID=990dca0c
DTITLE=Motor City Josh - Living Like a King In The Ghetto
DYEAR=1996
DGENRE=Blues
TTITLE0=Real Love
TTITLE1=Living Like A King In The Ghetto
TTITLE2=Bar Life
TTITLE3=Crazy About You Baby
TTITLE4=Shut Up Woman
TTITLE5=5231 Moran Street Blues
TTITLE6=Goin Fishin
TTITLE7=Gas Station Sandwich
TTITLE8=Conductor Conductor
TTITLE9=Day Shift/Night Shift
TTITLE10=So Long
TTITLE11=Another Man's Woman
EXTD=YEAR: 1996
EXTT0=
EXTT1=
EXTT2=
EXTT3=
EXTT4=
EXTT5=
EXTT6=
EXTT7=
EXTT8=
EXTT9=
EXTT10=
EXTT11=
PLAYORDER=
